<?xml version="1.0" encoding="UTF-8"?>
<svg id="Layer_1" data-name="Layer 1" xmlns="http://www.w3.org/2000/svg" viewBox="0 0 1200 200.78">
  <defs>
    <style>
      .cls-1 {
        fill: #ff5c5c;
      }

      .cls-2 {
        fill: #452dd6;
      }
    </style>
  </defs>
  <g>
    <path class="cls-2" d="m209.17,198.69V68.73h53.38c7.21,0,13.46,1.4,18.75,4.19,5.29,2.79,9.39,6.66,12.3,11.6,2.91,4.94,4.36,10.61,4.36,17.01,0,6.75-1.74,12.71-5.23,17.88-3.49,5.17-8.32,8.93-14.48,11.25l-.17-2.79c5.23,1.51,9.71,3.92,13.43,7.24,3.72,3.31,6.6,7.24,8.64,11.77,2.03,4.54,3.05,9.48,3.05,14.83,0,11.28-3.55,20.27-10.64,26.95-7.09,6.69-17.04,10.03-29.83,10.03h-53.55Zm11.16-73.61h41.17c7.68,0,13.81-2.15,18.4-6.45,4.59-4.3,6.89-10,6.89-17.1s-2.24-12.44-6.72-16.4c-4.48-3.95-10.67-5.93-18.58-5.93h-41.17v45.88Zm0,63.15h41.52c9.3,0,16.66-2.38,22.07-7.15,5.41-4.77,8.11-11.16,8.11-19.19s-2.65-14.62-7.94-19.45c-5.29-4.82-12.42-7.24-21.37-7.24h-42.39v53.03Z"/>
    <path class="cls-2" d="m330.23,198.69V68.73h43.44c8.37,0,15.7,1.63,21.98,4.88,6.28,3.26,11.16,7.85,14.65,13.78,3.49,5.93,5.23,12.79,5.23,20.58,0,9.31-2.5,17.24-7.5,23.81-5,6.57-11.8,11.08-20.41,13.52l30.7,53.38h-13.26l-32.27-56.87,9.42,5.41h-40.82v51.46h-11.16Zm11.16-61.93h32.62c6.04,0,11.34-1.19,15.87-3.58,4.54-2.38,8.08-5.76,10.64-10.12,2.56-4.36,3.84-9.45,3.84-15.26s-1.28-10.84-3.84-15.09c-2.56-4.24-6.11-7.56-10.64-9.94-4.54-2.38-9.83-3.58-15.87-3.58h-32.62v57.57Z"/>
    <path class="cls-2" d="m502.06,200.78c-8.96,0-17.33-1.63-25.12-4.88-7.79-3.25-14.63-7.88-20.5-13.87-5.87-5.99-10.47-13.08-13.78-21.28s-4.97-17.24-4.97-27.13,1.66-18.9,4.97-27.04c3.31-8.14,7.94-15.2,13.87-21.2,5.93-5.99,12.76-10.61,20.5-13.87,7.73-3.25,16.08-4.88,25.03-4.88s17.12,1.63,24.86,4.88c7.73,3.26,14.57,7.88,20.5,13.87,5.93,5.99,10.55,13.08,13.87,21.28,3.31,8.2,4.97,17.18,4.97,26.95s-1.66,18.93-4.97,27.13c-3.31,8.2-7.91,15.29-13.78,21.28-5.87,5.99-12.71,10.61-20.5,13.87-7.79,3.25-16.11,4.88-24.95,4.88Zm0-10.64c7.79,0,14.94-1.48,21.46-4.45,6.51-2.96,12.12-7.06,16.83-12.3,4.71-5.23,8.34-11.25,10.9-18.06,2.56-6.8,3.84-14.04,3.84-21.72s-1.28-14.74-3.84-21.54c-2.56-6.8-6.19-12.82-10.9-18.05-4.71-5.23-10.29-9.33-16.75-12.3-6.45-2.97-13.64-4.45-21.54-4.45s-15.12,1.48-21.63,4.45c-6.51,2.97-12.12,7.06-16.83,12.3-4.71,5.23-8.35,11.25-10.9,18.05-2.56,6.8-3.84,13.99-3.84,21.54s1.28,14.91,3.84,21.72c2.56,6.8,6.19,12.82,10.9,18.06,4.71,5.23,10.32,9.33,16.83,12.3,6.51,2.97,13.72,4.45,21.63,4.45Z"/>
    <path class="cls-2" d="m576.54,198.69l47.8-129.96h11.51l47.8,129.96h-12.04l-11.86-33.14h-59.31l-11.86,33.14h-12.04Zm27.56-43.44h51.81l-27.91-77.8h4.19l-28.09,77.8Z"/>
    <path class="cls-2" d="m703.01,198.69V68.73h42.04c12.79,0,23.84,2.65,33.14,7.94,9.3,5.29,16.51,12.79,21.63,22.5,5.12,9.71,7.67,21.2,7.67,34.45s-2.56,24.6-7.67,34.37c-5.12,9.77-12.33,17.33-21.63,22.68-9.31,5.35-20.35,8.03-33.14,8.03h-42.04Zm11.16-10.47h30.7c10.35,0,19.33-2.24,26.95-6.72,7.62-4.48,13.55-10.82,17.79-19.01,4.24-8.2,6.37-17.82,6.37-28.87s-2.12-20.64-6.37-28.78c-4.25-8.14-10.2-14.45-17.88-18.93-7.68-4.48-16.63-6.72-26.86-6.72h-30.7v109.03Z"/>
    <path class="cls-2" d="m874.67,200.78c-8.26,0-15.64-1.54-22.15-4.62-6.52-3.08-11.95-7.21-16.31-12.38-4.36-5.17-7.47-10.73-9.33-16.66l10.12-3.49c3.14,8.84,7.94,15.59,14.39,20.23,6.45,4.65,14.22,6.98,23.29,6.98,5.81,0,10.99-.99,15.52-2.97,4.54-1.98,8.08-4.77,10.64-8.37,2.56-3.6,3.84-7.91,3.84-12.91,0-6.74-1.89-11.98-5.67-15.7-3.78-3.72-8.7-6.4-14.74-8.03l-23.72-6.98c-9.65-2.79-16.78-7.3-21.37-13.52-4.6-6.22-6.89-13.28-6.89-21.19,0-6.86,1.66-12.88,4.97-18.05,3.31-5.17,7.82-9.22,13.52-12.12,5.7-2.91,12.15-4.36,19.36-4.36s14.16,1.43,20.15,4.27c5.99,2.85,11.08,6.57,15.26,11.16,4.19,4.6,7.15,9.68,8.9,15.26l-9.94,3.66c-2.91-8.02-7.39-14.1-13.43-18.23-6.05-4.13-12.97-6.19-20.76-6.19-5.23,0-9.89.99-13.96,2.97-4.07,1.98-7.27,4.77-9.59,8.37-2.33,3.61-3.49,7.85-3.49,12.73,0,5.93,1.68,11.02,5.06,15.26,3.37,4.25,9.01,7.53,16.92,9.86l21.46,6.45c9.3,2.79,16.49,7.04,21.54,12.73,5.06,5.7,7.59,12.74,7.59,21.11,0,6.86-1.78,12.88-5.32,18.06-3.55,5.18-8.4,9.25-14.57,12.21-6.16,2.96-13.26,4.45-21.28,4.45Z"/>
    <path class="cls-2" d="m944.62,198.69V68.73h11.16v129.96h-11.16Z"/>
    <path class="cls-2" d="m988.58,198.69V68.73h42.04c12.79,0,23.84,2.65,33.14,7.94,9.3,5.29,16.51,12.79,21.63,22.5,5.12,9.71,7.67,21.2,7.67,34.45s-2.56,24.6-7.67,34.37c-5.12,9.77-12.33,17.33-21.63,22.68-9.31,5.35-20.35,8.03-33.14,8.03h-42.04Zm11.16-10.47h30.7c10.35,0,19.33-2.24,26.95-6.72,7.62-4.48,13.55-10.82,17.79-19.01,4.24-8.2,6.37-17.82,6.37-28.87s-2.12-20.64-6.37-28.78c-4.25-8.14-10.2-14.45-17.88-18.93-7.68-4.48-16.63-6.72-26.86-6.72h-30.7v109.03Z"/>
    <path class="cls-2" d="m1118.19,198.69V68.73h81.81v10.47h-70.65v49.19h67.16v10.29h-67.16v49.54h70.65v10.47h-81.81Z"/>
  </g>
  <path class="cls-1" d="m136.6,100.31c0-20.01-16.28-36.28-36.28-36.28-11.12,0-21.09,5.03-27.75,12.94V0H0v200.63h136.6v-72.57h-12.94c7.9-6.66,12.94-16.63,12.94-27.75Zm-36.28-27.75c15.3,0,27.75,12.45,27.75,27.75s-12.45,27.75-27.75,27.75-27.75-12.45-27.75-27.75,12.45-27.75,27.75-27.75Zm-23.35,55.49h-4.4v-4.4c1.34,1.59,2.81,3.06,4.4,4.4ZM8.54,8.54h55.49v55.49H8.54V8.54Zm55.49,64.03v55.49H8.54v-55.49h55.49ZM8.54,192.09v-55.34c29.56,2.1,53.25,25.79,55.34,55.34H8.54Zm28.75-55.49h26.74v26.74c-6.23-11.22-15.52-20.52-26.74-26.74Zm90.77,0v55.49h-55.49v-55.49h55.49Z"/>
</svg>